<!-- Generated by IcoMoon.io -->
<svg version="1.1" xmlns="http://www.w3.org/2000/svg" width="1024" height="1024" viewBox="0 0 1024 1024">
<title></title>
<g id="icomoon-ignore">
</g>
<path fill="#000" d="M982.204 470.211h-110.175c-20.212-164.612-152.24-295.369-318.222-314.962v-113.454c-0.002-23.087-18.727-41.796-41.798-41.796-23.089 0-41.796 18.708-41.796 41.796v113.069c-167.37 18.39-300.818 149.75-321.165 315.33h-107.253c-23.087 0-41.796 18.708-41.796 41.796s18.708 41.796 41.796 41.796h106.683c18.49 167.654 152.876 301.169 321.733 319.728v108.688c0 23.089 18.708 41.796 41.796 41.796 23.071 0 41.796-18.708 41.796-41.796v-109.056c167.454-19.761 300.4-152.658 318.792-319.343h109.608c23.089 0 41.796-18.708 41.796-41.796s-18.706-41.796-41.794-41.796zM553.805 788.551v-137.861c0-23.089-18.725-41.796-41.796-41.796-23.089 0-41.796 18.708-41.796 41.796v138.297c-122.598-17.587-219.567-113.738-237.171-235.182h140.286c23.089 0 41.796-18.708 41.796-41.796s-18.708-41.796-41.796-41.796h-139.618c19.293-119.388 115.391-213.413 236.502-230.801v133.917c0 23.089 18.708 41.796 41.796 41.796 23.071 0 41.796-18.708 41.796-41.796v-133.483c119.723 18.474 214.417 111.932 233.559 230.367h-136.691c-23.089 0-41.796 18.708-41.796 41.796s18.708 41.796 41.796 41.796h137.378c-17.489 120.492-113.036 216.039-234.246 234.746z"></path>
</svg>
