<?xml version="1.0" encoding="utf-8"?>
<!-- Generator: Adobe Illustrator 19.0.0, SVG Export Plug-In . SVG Version: 6.00 Build 0)  -->
<svg version="1.1" xmlns="http://www.w3.org/2000/svg" xmlns:xlink="http://www.w3.org/1999/xlink" x="0px" y="0px"
	 viewBox="422 258.9 1440 325" style="enable-background:new 422 258.9 1440 325;" xml:space="preserve">
<style type="text/css">
	.st0{fill:url(#w45va_1_);}
	.st1{clip-path:url(#SVGID_2_);}
	.st2{fill:#0161CD;}
	.st3{fill:url(#w45vf_1_);}
	.st4{fill:#2C8CF4;}
	.st5{fill:#0353A7;}
	.st6{opacity:0.47;fill:#000201;}
	.st7{display:none;}
	.st8{display:inline;fill:#FFFFFF;}
	.st9{font-family:'Montserrat-Bold';}
	.st10{font-size:90px;}
	.st11{letter-spacing:-10.2;}
	.st12{display:inline;fill:#16B279;}
	.st13{letter-spacing:-16.4;}
	.st14{fill:#FFFFFF;}
	.st15{fill:#00E592;}
</style>
<g id="Calque_1">
	<g>
		<g>
			<g>
				<g>
					
						<linearGradient id="w45va_1_" gradientUnits="userSpaceOnUse" x1="1771.7021" y1="431.8271" x2="742.1021" y2="416.2171" gradientTransform="matrix(1 0 0 -1 0 843.67)">
						<stop  offset="0" style="stop-color:#0161CD"/>
						<stop  offset="1" style="stop-color:#0353A7"/>
					</linearGradient>
					<path id="w45va" class="st0" d="M422,583.9v-325h1440v325H422z"/>
				</g>
			</g>
			<g>
				<defs>
					<rect id="SVGID_1_" x="422" y="258.9" width="1440" height="325"/>
				</defs>
				<clipPath id="SVGID_2_">
					<use xlink:href="#SVGID_1_"  style="overflow:visible;"/>
				</clipPath>
				<g class="st1">
					<g>
						<g>
							<path id="w45vd" class="st2" d="M1386.3,388c100.2-46.4,180.4,57.9,217.1-20.8c36.7-78.6,212,6.9,153.7,169.2
								c-58.3,162.2-179.1-86-194.2,63.8c-15,149.8-160.8,55-209.7-7.6C1304.3,530,1286.1,434.4,1386.3,388L1386.3,388z"/>
						</g>
					</g>
					<g>
						<g>
							<path id="w45ve" class="st2" d="M1187,178.9c-5.1,23.8-15.7,48.6-31.4,67.3c-15.2,18.1-37.5,33.6-60.5,38.4
								c-26.6,5.6-54,1.8-80.1-4.2c-30.5-7-72.4-3.6-102.5,15.7c-28.8,18.5-47.8,43.5-70.1,69c-32.4,37.1-73.7,69-125.5,65.2
								c-41.1-3-75.9-28-99.5-60.7c-14.9-20.7-25.8-44.1-33.9-68.2c-30.6-91.4-16.1-121.7-16.1-121.7L1187,178.9z"/>
						</g>
					</g>
					<g>
						<g>
							
								<linearGradient id="w45vf_1_" gradientUnits="userSpaceOnUse" x1="1772.2935" y1="251.0089" x2="1542.1334" y2="355.3889" gradientTransform="matrix(1 0 0 -1 0 843.67)">
								<stop  offset="0" style="stop-color:#1273EB"/>
								<stop  offset="1" style="stop-color:#2C8CF4"/>
							</linearGradient>
							<path id="w45vf" class="st3" d="M1761.3,421.5c-25.2,15.4-6.6,82.2-28.7,88.6c-13.2,3.9-24.3-18.8-44.1-33.7
								c-7.8-5.8-16.8-10.5-27.9-11.8c-2.2-0.3-4.4-0.4-6.6-0.4c-6.5,0.1-13,1.2-19.1,3.3c-26.7,9-46.9,33.5-50.8,38.3
								c-1.8,2.2-4.3,5.2-7,8.8c-3.8,5-7.2,10.3-10.2,15.7c-5.5,10-9.9,21.7-10,33.8v0.3c0,4.8,0.7,9.7,2.4,14.5
								c4.1,12.3,13.3,22,24.9,29.3c6.4,4,13.5,7.2,20.9,9.7c13.4,4.5,27.9,6.7,42,5.6c33.8-2.6,44.4-23.7,77.7-19
								c19.9,2.8,45.1,14.6,46.9,30.1c2.1,17.7-28.2,23.7-39.3,55.1c-7,19.6-4.3,42.8,4.5,58.2c23.3,40.9,102,48.6,151.9,19.5
								c49.5-28.9,60.6-88.2,62.3-126.5c0.4-9.2,0.3-17.2,0-23.3c-0.2-4-0.5-8-0.9-12c-3.9-30.7-15.6-59-31.3-83.9
								c-39.9-63.1-106.5-103.9-142.2-103.9C1770.5,417.9,1765.4,419.1,1761.3,421.5"/>
						</g>
					</g>
					<g>
						<g>
							<path id="w45vh" class="st4" d="M1467,498.1c-7.8,10.2-5.9,22.9-5.4,26.8c0.6,4.1,4,24,20.2,30.2
								c15.3,5.8,33.5-3.8,41.4-18.2c7.2-13.1,7-32.2-5.2-43.6C1503,479.2,1477.6,484.1,1467,498.1"/>
						</g>
					</g>
					<g>
						<g>
							<path id="w45vi" class="st5" d="M1677.2,107.5c102.3,41.6,80.8,171.4,163.3,144.6s139.5,159.8-18.9,227.8
								c-158.4,68-59.3-189.6-179.1-98.5c-119.8,91.2-149.9-80.1-137.5-158.6C1517.4,144.3,1574.9,65.9,1677.2,107.5L1677.2,107.5z"
								/>
						</g>
					</g>
					<g>
						<g>
							<path id="w45vj" class="st4" d="M438.8,150.9c16.8-1.9,59.2,2.2,94,22.8c34.8,20.6,52,65.2,50.5,96.9
								c-1.5,31.7,8.9,56.5,30.3,67.4c21.5,10.9,34.9,3.4,57.2,0.6c22.3-2.8,77.1,12.4,85.2,61c8.1,48.6-33.9,94.5-62.1,108.9
								c-28.2,14.4-43.8,34.4-25.1,55.7c9.6,11,43.8,38.5,26.4,65c-83.1,126.6-333.1-9.4-376.5-176.9
								C279.4,300.9,347.4,161.6,438.8,150.9"/>
						</g>
					</g>
				</g>
			</g>
		</g>
	</g>
</g>
<g id="Calque_2">
	<g id="Calque_3">
		<rect x="422" y="258.9" class="st6" width="1440" height="325"/>
	</g>
	<text transform="matrix(0.9765 0 0 1 855.109 451.554)" class="st7"><tspan x="0" y="0" class="st8 st9 st10">WEL</tspan><tspan x="219.4" y="0" class="st8 st9 st10 st11">C</tspan><tspan x="274.7" y="0" class="st12 st9 st10 st11">O</tspan><tspan x="339.9" y="0" class="st12 st9 st10 st13">OO </tspan><tspan x="465.7" y="0" class="st8 st9 st10">M</tspan></text>
	<text transform="matrix(0.9765 0 0 1 878.6042 450.3691)"><tspan x="0" y="0" class="st14 st9 st10">WELC</tspan><tspan x="285.4" y="0" class="st15 st9 st10">OOO</tspan><tspan x="513.3" y="0" class="st14 st9 st10">M</tspan></text>
</g>
</svg>
