<svg height="512" viewBox="0 0 512 512" width="512" xmlns="http://www.w3.org/2000/svg"><g id="User_Female" data-name="User Female"><g id="Filled"><path d="m256 8a152 152 0 0 1 152 152v120a32 32 0 0 1 -32 32h-240a32 32 0 0 1 -32-32v-120a152 152 0 0 1 152-152z" fill="#525252"/><path d="m164 288a219.988 219.988 0 0 1 -60-8.3v.3a32 32 0 0 0 32 32h240a32 32 0 0 0 32-32v-120a151.286 151.286 0 0 0 -24.223-82.347c-5.054 117.022-101.51 210.347-219.777 210.347z" fill="#3f3f3f"/><path d="m256 416s56-25.072 56-56v-20.445l-3.471-.771a16 16 0 0 1 -12.529-15.619v-43.165h-80v43.165a16 16 0 0 1 -12.529 15.619l-3.471.771v20.445c0 30.928 56 56 56 56z" fill="#fac7b7"/><path d="m376 488h64v-68.661a64 64 0 0 0 -50.116-62.476l-77.884-17.308v20.445c0 30.928-56 56-56 56s-56-25.072-56-56v-20.445l-77.884 17.308a64 64 0 0 0 -50.116 62.476v68.661h64v24h240z" fill="#ce93d8"/><g fill="#ffe7de"><path d="m168 136h176a0 0 0 0 1 0 0v80a88 88 0 0 1 -88 88 88 88 0 0 1 -88-88v-80a0 0 0 0 1 0 0z"/><path d="m72 488h64v24h-64z"/><path d="m440 488h-64v24h64z"/></g><path d="m344 186a144.139 144.139 0 0 1 -164.63 73.285 87.967 87.967 0 0 0 76.63 44.715 88 88 0 0 0 88-88z" fill="#f9d8cd"/><path d="m440 488v-68.661a64 64 0 0 0 -50.116-62.476l-2.373-.527c-39.076 91.516-129.878 155.664-235.678 155.664h224.167v-24z" fill="#c087cc"/><circle cx="200" cy="48" fill="#848484" r="16"/><circle cx="240" cy="64" fill="#848484" r="12"/><circle cx="108" cy="388" fill="#e2b9ea" r="16"/><circle cx="148" cy="404" fill="#e2b9ea" r="12"/><circle cx="192" cy="176" fill="#fff5f2" r="16"/><circle cx="232" cy="192" fill="#fff5f2" r="12"/></g><g id="Outline"><path d="m432.163 374.287a72.252 72.252 0 0 0 -40.544-25.234l-81.354-18.078a7.953 7.953 0 0 1 -6.265-7.81v-24.052a96.057 96.057 0 0 0 48-83.113v-48a8 8 0 0 0 -16 0v48a80 80 0 0 1 -160 0v-48a8 8 0 0 0 -16 0v48a96.057 96.057 0 0 0 48 83.113v24.052a7.953 7.953 0 0 1 -6.265 7.81l-81.354 18.078a72 72 0 0 0 -56.381 70.286v84.661a8 8 0 0 0 16 0v-8h48v8a8 8 0 0 0 16 0v-48a8 8 0 0 0 -16 0v24h-48v-60.661a55.667 55.667 0 0 1 43.852-54.667l68.148-15.144v10.472c0 15.537 10.534 31.04 31.31 46.078a184.6 184.6 0 0 0 29.42 17.222l3.27 1.463 3.27-1.463a184.6 184.6 0 0 0 29.42-17.224c20.776-15.036 31.31-30.539 31.31-46.076v-10.472l68.148 15.144a55.667 55.667 0 0 1 43.852 54.667v60.661h-48v-24a8 8 0 0 0 -16 0v48a8 8 0 0 0 16 0v-8h48v8a8 8 0 0 0 16 0v-84.661a72.249 72.249 0 0 0 -15.837-45.052zm-128.163-14.287c0 19.6-32.058 39.352-47.995 47.158-15.352-7.567-48-27.67-48-47.158v-14.224a23.824 23.824 0 0 0 16-22.611v-16.656a95.989 95.989 0 0 0 64 0v16.656a23.824 23.824 0 0 0 16 22.611z"/><path d="m168.38 43.78a7.938 7.938 0 0 0 4.61-1.46l.13-.09h-.011a8.006 8.006 0 1 0 -4.729 1.55z"/><path d="m136 320h40.479a8 8 0 1 0 0-16h-40.479a24.084 24.084 0 0 1 -24-24v-120a143.581 143.581 0 0 1 38.24-97.73 8 8 0 0 0 -11.75-10.86 159.47 159.47 0 0 0 -42.49 108.59v120a40.015 40.015 0 0 0 40 40z"/><path d="m196.25 28.2a7.92 7.92 0 0 0 3.14-.65 144.047 144.047 0 0 1 200.61 132.45v120a24.084 24.084 0 0 1 -24 24h-40.48a8 8 0 0 0 0 16h40.48a40.015 40.015 0 0 0 40-40v-120a159.447 159.447 0 0 0 -27.33-89.47 160.382 160.382 0 0 0 -70.38-57.95 158.894 158.894 0 0 0 -62.27-12.58h-.041a161.236 161.236 0 0 0 -32.559 3.32 159.27 159.27 0 0 0 -30.32 9.52 8 8 0 0 0 3.15 15.36z"/><path d="m144 104v24a16.019 16.019 0 0 0 16 16h192a16.019 16.019 0 0 0 16-16v-24a8 8 0 0 0 -16 0v24h-192v-24a8 8 0 0 0 -16 0z"/><path d="m263.39 444.94a8.032 8.032 0 0 0 -.741-1.38 8.369 8.369 0 0 0 -.989-1.22 7.728 7.728 0 0 0 -1.221-.99 7.8 7.8 0 0 0 -2.879-1.19 7.809 7.809 0 0 0 -3.121 0 7.893 7.893 0 0 0 -1.5.45 7.986 7.986 0 0 0 -1.379.74 7.766 7.766 0 0 0 -1.22.99 8.31 8.31 0 0 0 -.99 1.22 8.032 8.032 0 0 0 -.741 1.38 7.919 7.919 0 0 0 -.449 1.5 7.685 7.685 0 0 0 0 3.12 7.919 7.919 0 0 0 .449 1.5 8.032 8.032 0 0 0 .741 1.38 8.31 8.31 0 0 0 .99 1.22 7.766 7.766 0 0 0 1.22.99 7.986 7.986 0 0 0 1.379.74 7.893 7.893 0 0 0 1.5.45 7.69 7.69 0 0 0 3.121 0 7.8 7.8 0 0 0 2.879-1.19 7.728 7.728 0 0 0 1.221-.99 8.369 8.369 0 0 0 .989-1.22 8.032 8.032 0 0 0 .741-1.38 7.85 7.85 0 0 0 .45-1.5 7.685 7.685 0 0 0 0-3.12 7.85 7.85 0 0 0 -.45-1.5z"/><path d="m260.439 473.35a7.8 7.8 0 0 0 -2.879-1.19 7.809 7.809 0 0 0 -3.121 0 7.893 7.893 0 0 0 -1.5.45 7.986 7.986 0 0 0 -1.379.74 7.589 7.589 0 0 0 -2.21 2.21 8.032 8.032 0 0 0 -.741 1.38 7.919 7.919 0 0 0 -.449 1.5 7.685 7.685 0 0 0 0 3.12 7.919 7.919 0 0 0 .449 1.5 8.032 8.032 0 0 0 .741 1.38 8.31 8.31 0 0 0 .99 1.22 7.766 7.766 0 0 0 1.22.99 7.986 7.986 0 0 0 1.379.74 7.893 7.893 0 0 0 1.5.45 7.69 7.69 0 0 0 3.121 0 7.8 7.8 0 0 0 2.879-1.19 7.728 7.728 0 0 0 1.221-.99 8.369 8.369 0 0 0 .989-1.22 8.032 8.032 0 0 0 .741-1.38 7.85 7.85 0 0 0 .45-1.5 7.443 7.443 0 0 0 .16-1.56 8.055 8.055 0 0 0 -2.34-5.66 8.331 8.331 0 0 0 -1.221-.99z"/></g></g></svg>