<?xml version="1.0" encoding="utf-8"?>
<!-- Generator: Adobe Illustrator 24.0.1, SVG Export Plug-In . SVG Version: 6.00 Build 0)  -->
<svg version="1.1" id="Layer_1" xmlns="http://www.w3.org/2000/svg" xmlns:xlink="http://www.w3.org/1999/xlink" x="0px" y="0px"
	 viewBox="0 0 512 512" style="enable-background:new 0 0 512 512;" xml:space="preserve">
<style type="text/css">
	.st0{fill:#DF4949;}
	.st1{fill:#FFFFFF;}
</style>
<title>tick_danger</title>
<ellipse class="st0" cx="256" cy="256" rx="256" ry="255.8"/>
<path class="st1" d="M397.2,354.6L304.6,262c-3.3-3.3-3.3-8.7,0-12l92.6-92.6c3.3-3.3,3.3-8.7,0-12l-30.6-30.6
	c-3.3-3.3-8.7-3.3-12,0L262,207.4c-3.3,3.3-8.7,3.3-12,0l-92.6-92.6c-3.3-3.3-8.7-3.3-12,0l-30.6,30.6c-3.3,3.3-3.3,8.7,0,12
	l92.6,92.6c3.3,3.3,3.3,8.7,0,12l-92.6,92.6c-3.3,3.3-3.3,8.7,0,12l30.6,30.6c3.3,3.3,8.7,3.3,12,0l92.6-92.6c3.3-3.3,8.7-3.3,12,0
	l92.6,92.6c3.3,3.3,8.7,3.3,12,0l30.6-30.6C400.5,363.3,400.5,357.9,397.2,354.6z"/>
</svg>
