<?xml version="1.0" encoding="utf-8"?>
<!-- Generator: Adobe Illustrator 24.0.1, SVG Export Plug-In . SVG Version: 6.00 Build 0)  -->
<svg version="1.1" id="Calque_1" xmlns="http://www.w3.org/2000/svg" xmlns:xlink="http://www.w3.org/1999/xlink" x="0px" y="0px"
	 viewBox="0 0 215.6 215.5" style="enable-background:new 0 0 215.6 215.5;" xml:space="preserve">
<style type="text/css">
	.st0{fill:#667D99;}
</style>
<title>times_grey</title>
<path class="st0" d="M127.7,107.8l83.9-83.9c5.5-5.5,5.5-14.4,0-19.8s-14.4-5.5-19.8,0L108,88L23.9,4.1c-5.5-5.5-14.4-5.5-19.8,0
	s-5.5,14.4,0,19.8l84.1,83.9L4.3,191.7c-5.4,5.5-5.4,14.3,0,19.8c2.6,2.6,6.1,4,9.8,4c3.7-0.1,7.2-1.5,9.8-4l83.9-83.9l83.9,83.9
	c2.6,2.6,6.1,4,9.8,4c3.7-0.1,7.2-1.5,9.8-4c5.4-5.5,5.4-14.3,0-19.8L127.7,107.8z"/>
</svg>
